:FULLY-SPECIFIED
:FORCE-ALL-JOINTS-BE-3DOF
:DEGREES
1020
root 0.247504 13.5561 -35.3857 372.299 -28.1861 342.296
lfemur -69.9677 35.8961 -3.92668
ltibia 82.2019 -0 0
lfoot -12.637 -8.41958 0.00131192
ltoes -6.08247 0 0
rfemur 10.0805 -8.70914 8.65824
rtibia 36.6547 -0 0
rfoot -22.6032 -26.1941 6.28358e-06
rtoes -31.4864 0 0
lowerback 10.3174 -0.648967 5.64248
upperback -1.64721 0.363468 8.00205
thorax -7.61545 0.0890398 5.32546
lowerneck -6.26972 8.09871 3.76809
upperneck 8.25879 10.5737 -0.932698
head 4.10263 5.30098 -0.361289
lclavicle 7.95636e-14 -3.69739e-14 0
lhumerus 84.141 -9.70934 27.5188
lradius 95.5441 0 0
lwrist 11.4053 0 0
lhand -35.9976 29.9334 0
lfingers 7.12502 0 0
lthumb -9.10746 59.7167 0
rclavicle 7.95636e-14 -3.69739e-14 0
rhumerus -76.8276 21.9228 -94.5904
rradius 111.986 0 0
rwrist -62.9347 0 0
rhand -10.1272 -25.1639 0
rfingers 7.12502 0 0
rthumb 15.8612 -54.5342 0
1021
root 0.246428 13.5528 -35.3769 372.275 -28.1762 342.313
lfemur -70.0053 35.9209 -3.94888
ltibia 82.2753 -0 0
lfoot -12.7045 -8.43352 0.00125452
ltoes -6.08651 0 0
rfemur 10.1109 -8.70872 8.64506
rtibia 36.6345 -0 0
rfoot -22.6036 -26.2049 6.47994e-06
rtoes -31.4678 0 0
lowerback 10.2874 -0.789171 5.47745
upperback -1.81465 0.173717 8.11367
thorax -7.7717 0.00554305 5.58204
lowerneck -5.30263 8.21476 3.61802
upperneck 8.01124 10.783 -0.998588
head 3.82443 5.4032 -0.397208
lclavicle 7.57867e-14 -1.19271e-15 0
lhumerus 83.5618 -9.24113 27.7396
lradius 95.2128 0 0
lwrist 11.4167 0 0
lhand -36.232 30.3028 0
lfingers 7.12502 0 0
lthumb -9.33364 60.0762 0
rclavicle 7.57867e-14 -1.19271e-15 0
rhumerus -77.3534 22.4523 -94.8543
rradius 111.987 0 0
rwrist -62.978 0 0
rhand -10.1238 -25.1576 0
rfingers 7.12502 0 0
rthumb 15.8645 -54.5277 0
1022
root 0.245708 13.5496 -35.3692 372.285 -28.1519 342.329
lfemur -70.043 35.9457 -3.97111
ltibia 82.3488 -0 0
lfoot -12.7719 -8.44745 0.00118072
ltoes -6.09054 0 0
rfemur 10.1412 -8.70828 8.63189
rtibia 36.6142 -0 0
rfoot -22.604 -26.2156 6.59776e-06
rtoes -31.4492 0 0
lowerback 10.2589 -0.83997 5.40937
upperback -1.87143 0.101125 8.14679
thorax -7.81317 -0.0261421 5.67166
lowerneck -5.02538 8.26271 3.52909
upperneck 7.94613 10.8638 -0.995879
head 3.74332 5.44243 -0.392086
lclavicle -1.31198e-14 -3.06128e-14 0
lhumerus 83.3715 -8.69039 27.9271
lradius 95.0235 0 0
lwrist 11.1777 0 0
lhand -36.3411 30.9188 0
lfingers 7.12502 0 0
lthumb -9.43896 60.6874 0
rclavicle -1.31198e-14 -3.06128e-14 0
rhumerus -77.5207 22.7097 -94.9668
rradius 111.981 0 0
rwrist -63.04 0 0
rhand -10.0941 -25.1284 0
rfingers 7.12502 0 0
rthumb 15.8931 -54.4963 0
1023
root 0.244334 13.5456 -35.3606 372.3 -28.1567 342.324
lfemur -70.0807 35.9705 -3.99337
ltibia 82.4222 -0 0
lfoot -12.8394 -8.46138 0.00109052
ltoes -6.09457 0 0
rfemur 10.1716 -8.70784 8.61871
rtibia 36.5939 -0 0
rfoot -22.6044 -26.2263 6.63703e-06
rtoes -31.4306 0 0
lowerback 10.2051 -0.811759 5.42256
upperback -1.86025 0.132276 8.12126
thorax -7.77132 -0.0119926 5.62792
lowerneck -5.04604 8.24865 3.51057
upperneck 7.94516 10.844 -0.975884
head 3.7438 5.43277 -0.382848
lclavicle -6.27911e-14 -7.55382e-15 0
lhumerus 83.4359 -8.11795 28.0702
lradius 94.7691 0 0
lwrist 10.7496 0 0
lhand -36.6287 30.7457 0
lfingers 7.12502 0 0
lthumb -9.71644 60.5016 0
rclavicle -6.27911e-14 -7.55382e-15 0
rhumerus -77.447 22.7083 -94.9736
rradius 111.902 0 0
rwrist -63.0942 0 0
rhand -10.1689 -25.1181 0
rfingers 7.12502 0 0
rthumb 15.821 -54.4916 0
1024
root 0.24394 13.5419 -35.3533 372.29 -28.1712 342.361
lfemur -70.1184 35.9953 -4.01565
ltibia 82.4956 -0 0
lfoot -12.9068 -8.47531 0.000983925
ltoes -6.09861 0 0
rfemur 10.2019 -8.70739 8.60553
rtibia 36.5737 -0 0
rfoot -22.6049 -26.2371 6.59776e-06
rtoes -31.4121 0 0
lowerback 10.1852 -0.849302 5.34252
upperback -1.88584 0.0728161 8.13821
thorax -7.7842 -0.0370324 5.70279
lowerneck -4.88081 8.30708 3.43768
upperneck 7.91975 10.9345 -0.983165
head 3.70061 5.47614 -0.376808
lclavicle -4.87022e-15 -3.53837e-14 0
lhumerus 83.2383 -7.58309 28.2573
lradius 94.5241 0 0
lwrist 9.91938 0 0
lhand -36.5911 29.4269 0
lfingers 7.12502 0 0
lthumb -9.68018 59.1845 0
rclavicle -4.87022e-15 -3.53837e-14 0
rhumerus -77.5524 22.9381 -95.0724
rradius 111.878 0 0
rwrist -63.1595 0 0
rhand -10.2532 -25.1076 0
rfingers 7.12502 0 0
rthumb 15.7398 -54.4875 0
1025
root 0.24242 13.5374 -35.3458 372.303 -28.1907 342.344
lfemur -70.1561 36.02 -4.03797
ltibia 82.569 -0 0
lfoot -12.9743 -8.48924 0.00086093
ltoes -6.10264 0 0
rfemur 10.2323 -8.70694 8.59235
rtibia 36.5534 -0 0
rfoot -22.6053 -26.2478 6.47994e-06
rtoes -31.3935 0 0
lowerback 10.1627 -0.81763 5.34497
upperback -1.87423 0.111007 8.11861
thorax -7.76054 -0.018818 5.67172
lowerneck -4.91514 8.29554 3.44113
upperneck 7.9404 10.9179 -0.983958
head 3.71442 5.46774 -0.376345
lclavicle -6.61953e-14 -9.14409e-15 0
lhumerus 83.3351 -7.06191 28.3981
lradius 94.2111 0 0
lwrist 9.20898 0 0
lhand -36.6413 29.6128 0
lfingers 7.12502 0 0
lthumb -9.72853 59.3681 0
rclavicle -6.61953e-14 -9.14409e-15 0
rhumerus -77.5395 22.934 -95.0842
rradius 111.867 0 0
rwrist -63.223 0 0
rhand -10.2349 -25.1344 0
rfingers 7.12502 0 0
rthumb 15.7575 -54.513 0
1026
root 0.241835 13.5333 -35.339 372.306 -28.1668 342.36
lfemur -70.1939 36.0448 -4.0603
ltibia 82.6425 -0 0
lfoot -13.0417 -8.50317 0.000721537
ltoes -6.10667 0 0
rfemur 10.2626 -8.70647 8.57918
rtibia 36.5332 -0 0
rfoot -22.6057 -26.2586 6.28358e-06
rtoes -31.3749 0 0
lowerback 10.1503 -0.830868 5.30728
upperback -1.88432 0.0884574 8.12446
thorax -7.76301 -0.0279407 5.70346
lowerneck -4.86763 8.32399 3.40872
upperneck 7.93106 10.9617 -0.999513
head 3.70187 5.48813 -0.376144
lclavicle -5.7573e-14 1.55052e-14 0
lhumerus 83.2364 -6.57342 28.5815
lradius 94.0584 0 0
lwrist 8.66203 0 0
lhand -35.89 30.44 0
lfingers 7.12502 0 0
lthumb -9.00363 60.2279 0
rclavicle -5.7573e-14 1.55052e-14 0
rhumerus -77.6058 23.0529 -95.1289
rradius 111.89 0 0
rwrist -63.2778 0 0
rhand -10.2306 -25.0477 0
rfingers 7.12502 0 0
rthumb 15.7616 -54.4259 0
1027
root 0.240287 13.5293 -35.3317 372.332 -28.1899 342.343
lfemur -70.2317 36.0695 -4.08267
ltibia 82.7159 -0 0
lfoot -13.1092 -8.5171 0.000565747
ltoes -6.11071 0 0
rfemur 10.293 -8.706 8.566
rtibia 36.5129 -0 0
rfoot -22.6061 -26.2693 6.00867e-06
rtoes -31.3563 0 0
lowerback 10.1211 -0.84843 5.24611
upperback -1.91042 0.0587301 8.1681
thorax -7.77306 -0.038782 5.79179
lowerneck -4.69934 8.36729 3.37278
upperneck 7.88953 11.0337 -1.06655
head 3.65881 5.52118 -0.39697
lclavicle -6.12257e-14 -4.8901e-14 0
lhumerus 83.1324 -6.07593 28.7269
lradius 93.8092 0 0
lwrist 8.51272 0 0
lhand -35.4416 30.9528 0
lfingers 7.12502 0 0
lthumb -8.57098 60.7588 0
rclavicle -6.12257e-14 -4.8901e-14 0
rhumerus -77.7197 23.2549 -95.1879
rradius 111.89 0 0
rwrist -63.2839 0 0
rhand -10.0673 -24.9691 0
rfingers 7.12502 0 0
rthumb 15.9188 -54.3348 0
1028
root 0.239316 13.5241 -35.3266 372.327 -28.1637 342.349
lfemur -70.2695 36.0942 -4.10506
ltibia 82.7893 -0 0
lfoot -13.1766 -8.53103 0.00039356
ltoes -6.11474 0 0
rfemur 10.3234 -8.70553 8.55283
rtibia 36.4926 -0 0
rfoot -22.6065 -26.28 5.65522e-06
rtoes -31.3377 0 0
lowerback 10.1131 -0.838304 5.23928
upperback -1.88804 0.0676372 8.15285
thorax -7.74447 -0.0344062 5.77573
lowerneck -4.74913 8.36507 3.38924
upperneck 7.88024 11.0304 -1.09598
head 3.66827 5.5185 -0.407079
lclavicle 8.33156e-14 -1.19271e-14 0
lhumerus 83.1563 -5.59473 28.8228
lradius 93.6821 0 0
lwrist 8.70814 0 0
lhand -36.1744 29.4337 0
lfingers 7.12502 0 0
lthumb -9.27805 59.2096 0
rclavicle 8.33156e-14 -1.19271e-14 0
rhumerus -77.6382 23.2791 -95.1921
rradius 111.847 0 0
rwrist -63.297 0 0
rhand -10.1589 -24.9499 0
rfingers 7.12502 0 0
rthumb 15.8306 -54.3227 0
1029
root 0.238492 13.5195 -35.3189 372.296 -28.166 342.366
lfemur -70.3073 36.1189 -4.12748
ltibia 82.8627 -0 0
lfoot -13.2441 -8.54496 0.000204977
ltoes -6.11877 0 0
rfemur 10.3537 -8.70505 8.53965
rtibia 36.4724 -0 0
rfoot -22.607 -26.2908 5.22322e-06
rtoes -31.3191 0 0
lowerback 10.123 -0.820688 5.23171
upperback -1.87532 0.0895017 8.13923
thorax -7.7375 -0.0235707 5.76095
lowerneck -4.75392 8.36157 3.38314
upperneck 7.87818 11.0274 -1.11177
head 3.66908 5.51621 -0.411123
lclavicle 2.06488e-14 -2.38542e-14 0
lhumerus 83.2199 -5.17303 28.9425
lradius 93.5973 0 0
lwrist 9.02358 0 0
lhand -36.199 30.3529 0
lfingers 7.12502 0 0
lthumb -9.30185 60.1277 0
rclavicle 2.06488e-14 -2.38542e-14 0
rhumerus -77.6689 23.2974 -95.1854
rradius 111.875 0 0
rwrist -63.2947 0 0
rhand -10.1511 -24.9753 0
rfingers 7.12502 0 0
rthumb 15.8381 -54.3475 0
1030
root 0.237145 13.5145 -35.3135 372.322 -28.1622 342.356
lfemur -70.3452 36.1436 -4.14993
ltibia 82.9361 -0 0
lfoot -13.3115 -8.55889 0
ltoes -6.12281 0 0
rfemur 10.3841 -8.70456 8.52648
rtibia 36.4521 -0 0
rfoot -22.6074 -26.3015 4.71268e-06
rtoes -31.3005 0 0
lowerback 10.0963 -0.823336 5.20065
upperback -1.87841 0.0804512 8.15872
thorax -7.72506 -0.0261885 5.80081
lowerneck -4.71251 8.37963 3.33436
upperneck 7.84821 11.0565 -1.1113
head 3.64785 5.52955 -0.404292
lclavicle -6.97237e-14 5.08889e-14 0
lhumerus 83.1883 -4.71662 29.0316
lradius 93.4031 0 0
lwrist 9.26705 0 0
lhand -36.5799 29.778 0
lfingers 7.12502 0 0
lthumb -9.66936 59.5361 0
rclavicle -6.97237e-14 5.08889e-14 0
rhumerus -77.7017 23.369 -95.2023
rradius 111.878 0 0
rwrist -63.3092 0 0
rhand -10.1936 -24.9779 0
rfingers 7.12502 0 0
rthumb 15.7972 -54.3533 0
1031
root 0.236489 13.5093 -35.3081 372.368 -28.1547 342.32
lfemur -70.3831 36.1683 -4.17241
ltibia 83.0095 -0 0
lfoot -13.3536 -8.5538 -3.74367e-05
ltoes -6.12684 0 0
rfemur 10.4144 -8.70406 8.5133
rtibia 36.4319 -0 0
rfoot -22.6078 -26.3122 4.1236e-06
rtoes -31.2819 0 0
lowerback 10.0573 -0.805134 5.24679
upperback -1.86757 0.104548 8.14259
thorax -7.69208 -0.0169099 5.7506
lowerneck -4.77639 8.39151 3.32727
upperneck 7.88471 11.068 -1.07239
head 3.67005 5.53607 -0.386004
lclavicle -1.16413e-13 -1.08934e-13 0
lhumerus 83.2373 -4.33923 29.1941
lradius 93.292 0 0
lwrist 9.24948 0 0
lhand -36.436 30.4723 0
lfingers 7.12502 0 0
lthumb -9.53052 60.2368 0
rclavicle -1.16413e-13 -1.08934e-13 0
rhumerus -77.6826 23.3427 -95.2043
rradius 111.881 0 0
rwrist -63.3398 0 0
rhand -10.2163 -24.9595 0
rfingers 7.12502 0 0
rthumb 15.7754 -54.3366 0
1032
root 0.235663 13.5044 -35.303 372.381 -28.1198 342.313
lfemur -70.421 36.193 -4.19491
ltibia 83.083 -0 0
lfoot -13.3957 -8.5487 -7.11298e-05
ltoes -6.17855 0 0
rfemur 10.4448 -8.70355 8.50013
rtibia 36.4116 -0 0
rfoot -22.6082 -26.323 3.45597e-06
rtoes -31.2634 0 0
lowerback 10.0533 -0.809118 5.24874
upperback -1.87303 0.0998403 8.14629
thorax -7.69547 -0.0191971 5.75452
lowerneck -4.83724 8.41825 3.26671
upperneck 8.00317 11.1003 -0.983902
head 3.71385 5.55322 -0.339905
lclavicle -2.98922e-14 5.08889e-14 0
lhumerus 83.2465 -3.97635 29.3834
lradius 93.1724 0 0
lwrist 9.11726 0 0
lhand -36.4554 30.6242 0
lfingers 7.12502 0 0
lthumb -9.54922 60.3878 0
rclavicle -2.98922e-14 5.08889e-14 0
rhumerus -77.6679 23.3483 -95.189
rradius 111.843 0 0
rwrist -63.3497 0 0
rhand -10.2406 -25.0109 0
rfingers 7.12502 0 0
rthumb 15.7519 -54.3899 0
